# xmcd
#
# Track frame offsets: 
#        150
#        13753
#        31919
#        51270
#        69183
#        90605
#        109920
#        124130
#        134399
#        149121
#
# Disc length: 2213 seconds
#
# Revision: 0
# Processed by: cddbd v1.5.2PL0 Copyright (c) Steve Scherf et al.
# Submitted via: ExactAudioCopy v1.3
#
DISCID=8f08a30a
DTITLE=Beaux Gris Gris and The Apocalyps - Love and Murder
DYEAR=2019
DGENRE=Blues Rock
TTITLE0=Heart Breaker
TTITLE1=Cyclone
TTITLE2=Louisiana Good Ride
TTITLE3=Thrill Me
TTITLE4=Baby Baby
TTITLE5=Don't Let The Bastards Drag You Down
TTITLE6=What’s My Name
TTITLE7=When My Baby Was Rich
TTITLE8=Let Your Groove Work
TTITLE9=Have Mercy
EXTD=
EXTT0=
EXTT1=
EXTT2=
EXTT3=
EXTT4=
EXTT5=
EXTT6=
EXTT7=
EXTT8=
EXTT9=
PLAYORDER=
